<?xml version="1.0" standalone="no"?>
<!DOCTYPE svg PUBLIC "-//W3C//DTD SVG 20010904//EN"
 "http://www.w3.org/TR/2001/REC-SVG-20010904/DTD/svg10.dtd">
<svg version="1.0" xmlns="http://www.w3.org/2000/svg"
viewBox="0 0 512.000000 512.000000"
 preserveAspectRatio="xMidYMid meet">

<g transform="translate(0.000000,512.000000) scale(0.100000,-0.100000)"
fill="#000000" stroke="none">
<path d="M170 2560 l0 -1540 2395 0 2395 0 -2 1538 -3 1537 -2392 3 -2393 2 0
-1540z m2835 736 c74 -25 205 -99 205 -116 0 -6 -97 -197 -106 -209 -2 -2 -17
7 -33 18 -44 32 -147 76 -210 91 -69 16 -181 7 -256 -21 -116 -43 -223 -163
-266 -297 -27 -85 -36 -251 -19 -349 25 -150 121 -288 240 -346 131 -64 303
-62 415 4 l35 21 0 149 0 149 -105 0 -105 0 0 115 0 115 240 0 240 0 0 -338 0
-337 -48 -32 c-64 -42 -149 -76 -257 -104 -131 -34 -348 -34 -455 -1 -126 40
-188 77 -277 167 -144 146 -206 317 -207 570 0 205 35 333 129 475 83 124 211
222 348 265 117 37 169 44 297 41 93 -3 130 -9 195 -30z m-1369 -720 c162
-407 296 -748 300 -758 5 -17 -4 -18 -139 -18 l-145 0 -16 43 c-9 23 -33 89
-54 147 l-39 105 -259 3 -259 2 -51 -147 -51 -148 -148 -3 c-138 -2 -147 -1
-141 15 4 10 138 352 298 761 l293 743 58 -3 59 -3 294 -739z m2864 604 l0
-120 -360 0 -360 0 0 -170 0 -170 265 0 265 0 0 -115 0 -115 -265 0 -265 0 0
-345 0 -345 -135 0 -135 0 0 750 0 750 495 0 495 0 0 -120z"/>
<path d="M1275 2838 c-4 -10 -44 -133 -89 -275 l-83 -258 175 -3 c96 -1 177
-1 179 2 3 2 -36 127 -85 278 -59 181 -92 267 -97 256z"/>
</g>
</svg>
